<?xml version="1.0" encoding="utf-8"?>
<!-- Generator: Adobe Illustrator 21.0.1, SVG Export Plug-In . SVG Version: 6.00 Build 0)  -->
<svg version="1.1" id="Layer_1" xmlns="http://www.w3.org/2000/svg" xmlns:xlink="http://www.w3.org/1999/xlink" x="0px" y="0px"
	 viewBox="0 0 23 23" enable-background="new 0 0 23 23" xml:space="preserve">
<g>
	<circle fill="#78B251" cx="11.5" cy="11.5" r="11.5"/>
</g>
<g>
	<path fill="#FFFFFF" d="M9.9,13.1c0-0.4,0-0.6,0.1-0.9c0.1-0.2,0.3-0.5,0.5-0.7c0.3-0.3,0.6-0.6,0.9-0.8c0.3-0.2,0.5-0.5,0.7-0.7
		c0.2-0.2,0.4-0.4,0.5-0.6c0.1-0.2,0.2-0.4,0.2-0.6c0-0.4-0.1-0.7-0.4-0.9c-0.2-0.2-0.5-0.3-0.9-0.3c-0.5,0-1,0.2-1.3,0.5
		S9.8,8.8,9.7,9.2L7,9.1c0.1-1.2,0.6-2.2,1.4-2.8c0.8-0.6,1.8-1,3-1c0.5,0,1,0.1,1.5,0.2c0.5,0.1,0.9,0.4,1.3,0.7s0.6,0.7,0.9,1.1
		s0.3,0.9,0.3,1.5c0,0.3,0,0.6-0.1,0.9s-0.2,0.5-0.4,0.8c-0.2,0.3-0.4,0.5-0.7,0.8c-0.3,0.3-0.6,0.6-1,0.9c-0.3,0.2-0.5,0.4-0.5,0.6
		c-0.1,0.2-0.1,0.4-0.1,0.6v0.5H9.9V13.1z M9.6,16.5c0-0.2,0-0.4,0.1-0.6c0.1-0.2,0.2-0.4,0.3-0.5c0.1-0.1,0.3-0.3,0.5-0.3
		c0.2-0.1,0.4-0.1,0.6-0.1s0.4,0,0.6,0.1c0.2,0.1,0.4,0.2,0.5,0.3c0.1,0.1,0.3,0.3,0.3,0.5c0.1,0.2,0.1,0.4,0.1,0.6
		c0,0.2,0,0.4-0.1,0.6c-0.1,0.2-0.2,0.4-0.3,0.5S12,17.9,11.8,18c-0.2,0.1-0.4,0.1-0.6,0.1s-0.4,0-0.6-0.1c-0.2-0.1-0.4-0.2-0.5-0.3
		c-0.1-0.1-0.3-0.3-0.3-0.5C9.6,16.9,9.6,16.7,9.6,16.5z"/>
</g>
</svg>
