<?xml version="1.0" encoding="utf-8"?>
<!-- Generator: Adobe Illustrator 21.0.1, SVG Export Plug-In . SVG Version: 6.00 Build 0)  -->
<svg version="1.1" id="Layer_1" xmlns="http://www.w3.org/2000/svg" xmlns:xlink="http://www.w3.org/1999/xlink" x="0px" y="0px"
	 viewBox="0 0 23 23" enable-background="new 0 0 23 23" xml:space="preserve">
<g>
	<circle fill="#78B251" cx="11.5" cy="11.5" r="11.5"/>
</g>
<g>
	<path fill="#FFFFFF" d="M13.6,8.7c-0.2-0.3-0.5-0.4-0.8-0.6C12.4,8,12.1,8,11.8,8c-0.2,0-0.4,0-0.6,0.1c-0.2,0-0.4,0.1-0.5,0.2
		s-0.3,0.2-0.4,0.4c-0.1,0.1-0.2,0.3-0.2,0.5c0,0.3,0.1,0.6,0.4,0.8s0.6,0.3,1,0.5c0.4,0.1,0.8,0.3,1.3,0.4c0.4,0.1,0.9,0.3,1.3,0.5
		c0.4,0.2,0.7,0.5,1,0.9c0.3,0.4,0.4,0.9,0.4,1.6c0,0.6-0.1,1.2-0.4,1.7c-0.2,0.5-0.6,0.9-1,1.2c-0.4,0.3-0.9,0.5-1.4,0.7
		c-0.5,0.1-1.1,0.2-1.7,0.2c-0.7,0-1.4-0.1-2.1-0.3c-0.6-0.2-1.2-0.6-1.8-1.1l1.8-2c0.3,0.3,0.6,0.6,1,0.8c0.4,0.2,0.8,0.3,1.2,0.3
		c0.2,0,0.4,0,0.6-0.1c0.2,0,0.4-0.1,0.6-0.2c0.2-0.1,0.3-0.2,0.4-0.4c0.1-0.1,0.2-0.3,0.2-0.5c0-0.3-0.1-0.6-0.4-0.8
		c-0.3-0.2-0.6-0.4-1-0.5c-0.4-0.1-0.8-0.3-1.3-0.4c-0.5-0.1-0.9-0.3-1.3-0.6c-0.4-0.2-0.7-0.5-1-0.9C7.6,10.5,7.5,10,7.5,9.4
		c0-0.6,0.1-1.1,0.4-1.6c0.2-0.5,0.6-0.8,1-1.2c0.4-0.3,0.9-0.5,1.4-0.7c0.5-0.2,1.1-0.2,1.6-0.2c0.6,0,1.3,0.1,1.9,0.3
		c0.6,0.2,1.1,0.5,1.6,0.9L13.6,8.7z"/>
</g>
</svg>
